<svg width="39" height="48" viewBox="0 0 39 48" fill="none" xmlns="http://www.w3.org/2000/svg">
<path d="M37.7968 7.93912C37.0935 3.28556 33.7213 2.23057 29.5688 1.44534C24.2145 0.456437 18.7791 -0.0274219 13.3344 0.000137401C9.87068 0.000137401 6.26249 0.573401 3.5985 3.01098C1.55595 4.88974 0.525036 7.53928 0.197457 10.237C-0.481789 15.8974 0.669556 23.6437 2.21111 29.1981C3.65631 34.3141 6.79722 38.9194 12.6744 38.563C14.3662 38.4493 16.0483 38.2191 17.7085 37.8741C17.772 41.0155 17.5138 44.1551 16.9377 47.2438C16.8558 47.6822 17.3424 48.2314 17.7904 47.899C22.7237 44.2574 26.8285 39.6108 29.8337 34.2659C31.8089 33.5337 33.7695 32.6135 35.0991 30.9178C36.6647 28.9235 37.1465 26.351 37.4692 23.899C38.057 18.7492 38.5869 13.1033 37.7968 7.93912Z" fill="#87B435" style="fill:#87B435;fill:color(display-p3 0.5294 0.7059 0.2078);fill-opacity:1;"/>
<path d="M30.4553 9.48565C27.5649 4.31182 19.1538 7.76104 19.1538 7.76104C12.4481 11.0176 9.95752 13.4889 9.95752 13.4889V28.6394C19.7271 28.4467 25.6669 30.7494 25.6669 30.7494V21.1966C21.0711 15.0208 22.9306 13.2576 24.1542 12.7663C24.1542 12.7663 28.1815 11.7161 27.0061 14.6932C22.5693 13.2721 24.3228 17.6703 24.3228 17.6703C26.8134 21.6109 30.4553 18.7157 30.4553 18.7157C32.9459 14.8474 30.4553 9.48565 30.4553 9.48565ZM19.1538 21.1966L14.9338 18.6916L19.149 15.2327L19.1538 21.1966Z" fill="#231F20" style="fill:#231F20;fill:color(display-p3 0.1373 0.1216 0.1255);fill-opacity:1;"/>
</svg>
